<?xml version="1.0" encoding="UTF-8" standalone="no"?>
<!-- Created with Inkscape (http://www.inkscape.org/) -->

<svg
   xmlns:dc="http://purl.org/dc/elements/1.1/"
   xmlns:cc="http://creativecommons.org/ns#"
   xmlns:rdf="http://www.w3.org/1999/02/22-rdf-syntax-ns#"
   xmlns:svg="http://www.w3.org/2000/svg"
   xmlns="http://www.w3.org/2000/svg"
   xmlns:sodipodi="http://sodipodi.sourceforge.net/DTD/sodipodi-0.dtd"
   xmlns:inkscape="http://www.inkscape.org/namespaces/inkscape"
   sodipodi:docname="bend-squares.svg"
   inkscape:version="0.92.4 (unknown)"
   id="svg1687"
   version="1.1"
   viewBox="0 0 1185.9525 619.56329"
   height="619.56329mm"
   width="1185.9525mm">
  <defs
     id="defs1681">
    <inkscape:path-effect
       effect="bend_path"
       id="path-effect861"
       is_visible="true"
       bendpath="m -197.17409,66.244328 c 144.662683,88.713942 330.29511,88.713942 474.34842,-7.8e-5"
       prop_scale="0.87194226"
       scale_y_rel="false"
       vertical="false"
       bendpath-nodetypes="cc" />
    <inkscape:path-effect
       effect="bend_path"
       id="path-effect392"
       is_visible="true"
       bendpath="m -197.17395,66.244459 c 144.662543,88.713811 330.29497,88.713811 474.35253,-0.0028"
       prop_scale="0.83483283"
       scale_y_rel="false"
       vertical="false"
       bendpath-nodetypes="cc" />
    <inkscape:path-effect
       effect="bend_path"
       id="path-effect390"
       is_visible="true"
       bendpath="M -26.885051,524.45415 H 140.22707"
       prop_scale="1"
       scale_y_rel="false"
       vertical="false" />
    <inkscape:path-effect
       effect="bend_path"
       id="path-effect191"
       is_visible="true"
       bendpath="m -39.77293,524.45415 h 160"
       prop_scale="1"
       scale_y_rel="false"
       vertical="false" />
    <inkscape:path-effect
       bendpath-nodetypes="cc"
       vertical="false"
       scale_y_rel="false"
       prop_scale="0.87194164"
       bendpath="m -197.17309,66.244995 c 144.661683,88.713275 330.29411,88.713275 474.35167,-0.0034"
       is_visible="true"
       id="path-effect6164"
       effect="bend_path" />
    <inkscape:path-effect
       effect="bend_path"
       id="path-effect6154"
       is_visible="true"
       bendpath="m -197.17309,66.244995 c 144.661683,88.713275 330.29411,88.713275 474.35167,-0.0034"
       prop_scale="0.87194164"
       scale_y_rel="false"
       vertical="false"
       bendpath-nodetypes="cc" />
    <inkscape:path-effect
       effect="bend_path"
       id="path-effect6151"
       is_visible="true"
       bendpath="m -197.17395,66.244459 c 144.662543,88.713811 330.29497,88.713811 474.34826,-2.37e-4"
       prop_scale="1.1864353"
       scale_y_rel="false"
       vertical="false"
       bendpath-nodetypes="cc" />
    <inkscape:path-effect
       effect="lattice2"
       gridpoint0="-232.02422,7.225695"
       gridpoint1="311.82423,7.225695"
       gridpoint2="-232.02422,124.8138"
       gridpoint3="311.82423,124.8138"
       gridpoint4="-96.062108,7.225695"
       gridpoint5="175.86212,7.225695"
       gridpoint6="-96.062108,124.8138"
       gridpoint7="175.86212,124.8138"
       gridpoint8x9="39.900005,7.225695"
       gridpoint10x11="39.900005,124.8138"
       gridpoint12="-232.02422,36.622721"
       gridpoint13="311.82423,36.622721"
       gridpoint14="-232.02422,95.416774"
       gridpoint15="311.82423,95.416774"
       gridpoint16="-96.062108,36.622721"
       gridpoint17="175.86212,36.622721"
       gridpoint18="-96.062108,95.416774"
       gridpoint19="175.86212,95.416774"
       gridpoint20x21="39.900005,36.622721"
       gridpoint22x23="39.900005,95.416774"
       gridpoint24x26="-232.02422,66.019747"
       gridpoint25x27="311.82423,66.019747"
       gridpoint28x30="-96.062108,66.019747"
       gridpoint29x31="175.86212,66.019747"
       gridpoint32x33x34x35="39.900005,66.019747"
       id="path-effect6149"
       is_visible="true"
       horizontal_mirror="false"
       vertical_mirror="false"
       live_update="true" />
    <inkscape:path-effect
       vertical="false"
       scale_y_rel="false"
       prop_scale="1"
       bendpath="M -231.92422,66.019747 H 311.92423"
       is_visible="true"
       id="path-effect6065"
       effect="bend_path" />
    <inkscape:path-effect
       effect="bend_path"
       id="path-effect5979"
       is_visible="true"
       bendpath="M -231.92422,66.019747 H 311.92423"
       prop_scale="1"
       scale_y_rel="false"
       vertical="false" />
    <inkscape:path-effect
       effect="lattice2"
       gridpoint0="-233.4705,6.6846349"
       gridpoint1="313.4705,6.6846349"
       gridpoint2="-233.4705,202.56537"
       gridpoint3="313.4705,202.56537"
       gridpoint4="-96.73525,6.6846349"
       gridpoint5="176.73525,6.6846349"
       gridpoint6="-96.73525,202.56537"
       gridpoint7="176.73525,202.56537"
       gridpoint8x9="40,6.6846349"
       gridpoint10x11="40,202.56537"
       gridpoint12="-233.4705,55.654818"
       gridpoint13="313.4705,55.654818"
       gridpoint14="-233.4705,153.59519"
       gridpoint15="313.4705,153.59519"
       gridpoint16="-96.73525,55.654818"
       gridpoint17="176.73525,55.654818"
       gridpoint18="-96.73525,153.59519"
       gridpoint19="176.73525,153.59519"
       gridpoint20x21="40,55.654818"
       gridpoint22x23="40,153.59519"
       gridpoint24x26="-233.4705,104.625"
       gridpoint25x27="313.4705,104.625"
       gridpoint28x30="-96.73525,104.625"
       gridpoint29x31="176.73525,104.625"
       gridpoint32x33x34x35="40,104.625"
       id="path-effect3955"
       is_visible="true"
       horizontal_mirror="false"
       vertical_mirror="false"
       live_update="true" />
    <inkscape:path-effect
       effect="construct_grid"
       id="path-effect3953"
       is_visible="true"
       nr_x="5"
       nr_y="5" />
    <inkscape:path-effect
       effect="bspline"
       id="path-effect3948"
       is_visible="true"
       weight="33.333333"
       steps="2"
       helper_size="0"
       apply_no_weight="true"
       apply_with_weight="true"
       only_selected="false" />
    <inkscape:path-effect
       effect="bend_path"
       id="path-effect3946"
       is_visible="true"
       bendpath="M -260,467 H 340"
       prop_scale="0.95204038"
       scale_y_rel="false"
       vertical="false" />
  </defs>
  <sodipodi:namedview
     id="base"
     pagecolor="#ffffff"
     bordercolor="#666666"
     borderopacity="1.0"
     inkscape:pageopacity="0.0"
     inkscape:pageshadow="2"
     inkscape:zoom="0.3253709"
     inkscape:cx="1368.32"
     inkscape:cy="772.02751"
     inkscape:document-units="mm"
     inkscape:current-layer="layer1"
     showgrid="false"
     inkscape:snap-center="true"
     inkscape:snap-nodes="true"
     showguides="true"
     inkscape:guide-bbox="true"
     inkscape:snap-intersection-paths="true"
     inkscape:snap-global="true"
     fit-margin-top="10"
     fit-margin-left="10"
     fit-margin-right="10"
     fit-margin-bottom="10">
    <inkscape:grid
       originy="318.45419"
       originx="244.7254"
       id="grid2241"
       type="xygrid" />
    <sodipodi:guide
       inkscape:locked="false"
       id="guide3789"
       orientation="0,1"
       position="344.7254,938.45419" />
  </sodipodi:namedview>
  <metadata
     id="metadata1684">
    <rdf:RDF>
      <cc:Work
         rdf:about="">
        <dc:format>image/svg+xml</dc:format>
        <dc:type
           rdf:resource="http://purl.org/dc/dcmitype/StillImage" />
        <dc:title />
      </cc:Work>
    </rdf:RDF>
  </metadata>
  <g
     inkscape:label="Ebene 1"
     inkscape:groupmode="layer"
     id="layer1"
     transform="translate(244.72541,4.109172)"
     style="display:inline">
    <path
       id="path37"
       style="vector-effect:none;fill:none;stroke:#ff0000;stroke-width:1;stroke-linejoin:round;stroke-miterlimit:4;stroke-dasharray:none"
       d="m 350.22707,444.45415 h 580 m -580,20 h 580 m -580,20 h 580 m -580,20 h 580 m -580,20 h 580 m -580,20 h 580 m -580,20 h 580 m -580,20 h 580 m -580,20 h 580 m -580,-160 v 160 m 20,-160 v 160 m 20,-160 v 160 m 20,-160 v 160 m 20,-160 v 160 m 100,-160 v 160 m -80,-160 v 160 m 20,-160 v 160 m 20,-160 v 160 m 20,-160 v 160 m 20,-160 v 160 m 0,-160 v 160 m 20,-160 v 160 m 20,-160 v 160 m 20,-160 v 160 m 20,-160 v 160 m 20,-160 v 160 m 20,-160 v 160 m 20,-160 v 160 m 60,-160 v 160 m -40,-160 v 160 m 20,-160 v 160 m 20,-160 v 160 m 0,-160 v 160 m 20,-160 v 160 m 20,-160 v 160 m 20,-160 v 160 m 20,-160 v 160 m 20,-160 v 160 m 100,-160 v 160 m 0,-160 v 160 m -80,-160 v 160 m 20,-160 v 160 m 20,-160 v 160 m 20,-160 v 160 m 20,-160 v 160"
       inkscape:connector-curvature="0" />
    <g
       id="g884"
       transform="translate(610)">
      <path
         inkscape:original-d="m -239.77293,444.45415 h 580 m -580,20 h 580 m -580,20 h 580 m -580,20 h 580 m -580,20 h 580 m -580,20 h 580 m -580,20 h 580 m -580,20 h 580 m -580,20 h 580 m -580,-160 v 160 m 20,-160 v 160 m 20,-160 v 160 m 20,-160 v 160 m 20,-160 v 160 m 100,-160 v 160 m -80,-160 v 160 m 20,-160 v 160 m 20,-160 v 160 m 20,-160 v 160 m 20,-160 v 160 m 0,-160 v 160 m 20,-160 v 160 m 20,-160 v 160 m 20,-160 v 160 m 20,-160 v 160 m 20,-160 v 160 m 20,-160 v 160 m 20,-160 v 160 m 60,-160 v 160 m -40,-160 v 160 m 20,-160 v 160 m 20,-160 v 160 m 0,-160 v 160 m 20,-160 v 160 m 20,-160 v 160 m 20,-160 v 160 m 20,-160 v 160 m 20,-160 v 160 m 100,-160 v 160 m 0,-160 v 160 m -80,-160 v 160 m 20,-160 v 160 m 20,-160 v 160 m 20,-160 v 160 m 20,-160 v 160"
         inkscape:path-effect="#path-effect861"
         id="path859"
         style="vector-effect:none;fill:none;stroke:#ff0000;stroke-width:1;stroke-linejoin:round;stroke-miterlimit:4;stroke-dasharray:none"
         d="M -160.76922,6.7420229 C -101.25263,43.41584 -30.157231,63.025198 40.228627,63.024394 110.43632,63.009806 181.33132,43.509827 240.53472,6.8865557 M -169.88877,21.606354 C -107.51007,59.996315 -33.374821,80.463845 40.228629,80.463239 113.64884,80.452295 187.59103,60.089601 249.67631,21.737255 M -179.00832,36.470686 C -113.76751,76.576791 -36.59241,97.902491 40.228631,97.902084 116.86135,97.894785 193.85074,76.669376 258.8179,36.587954 M -188.12787,51.335018 C -120.02495,93.157266 -39.81,115.34114 40.228633,115.34093 120.07386,115.33728 200.11045,93.24915 267.95949,51.438653 m -465.20691,14.760696 c 70.96503,43.538391 154.219831,66.580431 237.476055,66.580421 83.057745,-1e-5 166.141525,-22.95085 236.872445,-66.490418 m -483.46805,14.774329 c 73.82714,45.254539 160.121791,69.154749 246.595607,69.154939 86.270253,0.004 172.401233,-23.80992 246.014033,-69.078569 m -501.72919,14.787961 c 76.68925,46.970678 166.023752,71.729068 255.715159,71.729458 89.482771,0.007 178.660941,-24.669 255.155621,-71.66672 m -519.99033,14.80159 c 79.55136,48.68683 171.925712,74.30338 264.834711,74.30397 92.695279,0.0109 184.920649,-25.52806 264.297209,-74.25486 m -538.25147,14.81523 c 82.41347,50.40296 177.827673,76.87769 273.954263,76.87848 95.907787,0.0146 191.180357,-26.38714 273.438797,-76.84301 M -160.76922,6.7420229 -233.72562,125.65668 M -148.30932,14.076925 -216.51384,135.731 m 80.96997,-114.809982 -63.41216,124.198092 m 76.45906,-117.849799 -58.57932,126.546699 m 71.88356,-120.699199 -53.706,128.699899 M -39.654753,54.667687 -68.386906,191.20246 M -95.655241,38.458526 -144.44743,169.11622 M -81.9086,43.289463 -125.7465,175.70954 M -67.976905,47.604631 -106.82004,181.59168 M -53.884257,51.399036 -87.692142,186.75765 M -39.654753,54.667687 -68.386906,191.20246 M -39.654753,54.667687 -68.386906,191.20246 M -25.312491,57.405591 -48.928432,194.92112 M -10.88157,59.607756 -29.340817,197.90862 M 3.6139121,61.26919 -9.6481593,200.15999 M 18.149857,62.3849 10.125442,201.67023 M 32.702165,62.949895 29.95589,202.43434 M 47.250341,62.958088 49.815635,202.44867 M 61.799923,62.409765 69.651654,201.71155 M 105.25132,57.480607 128.73537,195.02644 M 76.332913,61.310968 89.43325,200.2257 M 90.824861,59.66636 109.13597,197.99578 M 105.25132,57.480607 128.73537,195.02644 M 105.25132,57.480607 128.73537,195.02644 M 119.58783,54.758376 148.20699,191.32237 M 133.80995,51.504331 167.52639,186.88822 M 147.89323,47.723139 186.66911,181.72866 M 161.81321,43.419464 205.61071,175.84835 M 175.54545,38.597972 224.32673,169.25197 M 240.53472,6.8865557 313.66744,125.69215 M 240.53472,6.8865557 313.66744,125.69215 M 189.06549,33.263329 242.79273,161.94417 M 202.34889,27.420201 260.98425,153.92962 M 215.37119,21.073252 278.87684,145.21299 M 228.10795,14.227148 296.44605,135.79895 M 240.53472,6.8865557 313.66744,125.69215"
         inkscape:connector-curvature="0" />
      <path
         transform="matrix(0.26458333,0,0,0.26458333,-244.72541,-4.109172)"
         inkscape:connector-curvature="0"
         id="path871"
         d="m 1220.0938,281.37705 c -1.364,-15.63692 -1.7968,-29.114 -0.9617,-29.94907 0.8351,-0.83507 11.7217,-2.47112 24.1926,-3.63566 l 22.6743,-2.11736 3.2974,28.31207 3.2974,28.31207 -8.8662,1.63657 c -4.8764,0.90012 -16.1308,2.58958 -25.0099,3.75436 l -16.1438,2.11777 z"
         style="vector-effect:none;fill:#666666;fill-opacity:1;stroke:none;stroke-width:3.77952743;stroke-linejoin:round;stroke-miterlimit:4;stroke-dasharray:none" />
      <path
         transform="matrix(0.26458333,0,0,0.26458333,-244.72541,-4.109172)"
         inkscape:connector-curvature="0"
         id="path873"
         d="m 1171.3613,417.81524 c -1.3212,-15.84241 -1.8626,-29.34403 -1.203,-30.0036 0.6596,-0.65957 12.4293,-2.24294 26.1551,-3.51862 28.5607,-2.65444 26.5287,-5.06494 30.5465,36.236 l 2.1258,21.85246 -15.0333,0.0385 c -8.2683,0.0213 -20.6933,0.97474 -27.6111,2.11907 l -12.5778,2.08058 z"
         style="vector-effect:none;fill:#666666;fill-opacity:1;stroke:none;stroke-width:3.77952743;stroke-linejoin:round;stroke-miterlimit:4;stroke-dasharray:none" />
      <path
         transform="matrix(0.26458333,0,0,0.26458333,-244.72541,-4.109172)"
         inkscape:connector-curvature="0"
         id="path875"
         d="m 1113.2575,615.45296 v -29.71935 h 29.3116 c 33.6361,0 33.4896,-0.15479 33.5758,35.46396 0.057,23.46964 -0.7217,23.97473 -36.9504,23.97473 h -25.937 z"
         style="vector-effect:none;fill:#666666;fill-opacity:1;stroke:none;stroke-width:3.77952743;stroke-linejoin:round;stroke-miterlimit:4;stroke-dasharray:none" />
      <path
         transform="matrix(0.26458333,0,0,0.26458333,-244.72541,-4.109172)"
         inkscape:connector-curvature="0"
         id="path877"
         d="m 1043.3296,748.31591 v -29.71934 h 33.2158 33.2157 v 29.71934 29.71935 h -33.2157 -33.2158 z"
         style="vector-effect:none;fill:#666666;fill-opacity:1;stroke:none;stroke-width:3.77952743;stroke-linejoin:round;stroke-miterlimit:4;stroke-dasharray:none" />
    </g>
    <g
       id="g899">
      <path
         inkscape:original-d="m 326.67101,440.89809 v 167.11212 m -20,-167.11212 v 167.11212 m -20,-167.11212 v 167.11212 m -20,-167.11212 v 167.11212 m 80,-167.11212 v 167.11212 m 0,-167.11212 v 167.11212 m -100,-167.11212 v 167.11212 m -20,-167.11212 v 167.11212 m -20,-167.11212 v 167.11212 m -20,-167.11212 v 167.11212 m -20,-167.11212 v 167.11212 m -20,-167.11212 v 167.11212 m 0,-167.11212 v 167.11212 m -20,-167.11212 v 167.11212 m -20,-167.11212 v 167.11212 m 40,-167.11212 V 608.01021 M 86.671009,440.89809 v 167.11212 m -20,-167.11212 v 167.11212 m -20,-167.11212 v 167.11212 m -20,-167.11212 V 608.01021 M 6.6710095,440.89809 V 608.01021 M -13.328991,440.89809 v 167.11212 m -20,-167.11212 v 167.11212 m -20,-167.11212 v 167.11212 m 0,-167.11212 v 167.11212 m -20,-167.11212 v 167.11212 m -20,-167.11212 V 608.01021 M -113.32899,440.89809 v 167.11212 m -20,-167.11212 V 608.01021 M -53.328991,440.89809 V 608.01021 M -153.32899,440.89809 v 167.11212 m -20,-167.11212 v 167.11212 m -20,-167.11212 v 167.11212 m -20,-167.11212 v 167.11212 m -20,-167.11212 v 167.11212 m 0,0 h 580 m -580,-23.72501 h 580 m -580,-23.13788 h 580 m -580,-22.48416 h 580 m -580,-21.744 h 580 m -580,-20.88631 h 580 m -580,-19.85815 h 580 m -580,-18.55592 h 580 m -580,-16.72069 h 580"
         inkscape:path-effect="#path-effect392"
         sodipodi:nodetypes="cccccccccccccccccccccccccccccccccccccccccccccccccccccccccccccccccccccccccccccccccccccccc"
         id="path235"
         style="vector-effect:none;fill:none;stroke:#ff0000;stroke-width:1;stroke-linejoin:round;stroke-miterlimit:4;stroke-dasharray:none"
         d="m 228.11199,14.22472 68.33827,121.57166 M 215.375,21.070972 278.88102,145.2105 M 202.35249,27.418081 260.9884,153.92723 M 189.0689,33.261379 242.79685,161.9419 M 240.53899,6.8839935 313.67166,125.68953 M 240.53899,6.8839935 313.67166,125.68953 M 175.54867,38.596198 224.33081,169.24983 M 161.81626,43.41787 205.61474,175.84638 M 147.89612,47.721726 186.67309,181.72685 M 133.81269,51.503099 167.53029,186.88659 M 119.59043,54.75732 148.21081,191.32094 M 105.25378,57.479722 128.73909,195.02521 M 105.25378,57.479722 128.73909,195.02521 M 90.827192,59.665636 109.13958,197.99474 M 76.335116,61.310393 89.436724,200.22487 M 105.25378,57.479722 128.73909,195.02521 M 61.802,62.409327 69.654978,201.71092 M 47.252295,62.957768 49.818791,202.44823 M 32.704,62.949688 29.958854,202.43408 M 18.151572,62.384803 10.128205,201.67011 M 3.6155044,61.269189 -9.6456011,200.16 M -10.880105,59.607838 -29.338467,197.90874 M -25.311156,57.405742 -48.926291,194.92132 M -39.653548,54.667895 -68.384975,191.20274 M -39.653548,54.667895 -68.384975,191.20274 M -53.883184,51.399287 -87.690419,186.75798 M -67.975964,47.604912 -106.81853,181.59204 M -81.907788,43.289763 -125.74519,175.70992 M -95.654558,38.458832 -144.44632,169.11659 M -39.653548,54.667895 -68.384975,191.20274 M -109.19217,33.117111 -162.89782,161.81707 M -122.49654,27.269592 -181.07558,153.81633 M -135.54355,20.921269 -198.9555,145.11938 M -148.30911,14.077134 -216.51349,135.7312 M -160.76911,6.7421784 -233.72545,125.65678 c 82.41365,50.40305 177.828138,76.87764 273.95493,76.87803 95.90945,0.0141 191.18302,-26.38885 273.44218,-76.84528 M -223.36779,108.7744 c 79.16294,48.4539 171.124847,73.95381 263.597186,73.95399 92.260724,0.01 184.073424,-25.4131 263.059574,-73.90576 M -213.26646,92.309817 c 75.99268,46.552993 164.587451,71.102343 253.495774,71.102313 88.702286,0.006 177.139756,-24.4615 252.933906,-71.03898 M -203.45052,76.310409 c 72.91199,44.705791 158.234752,68.331431 243.679754,68.331211 85.244386,0.002 170.401996,-23.53679 243.094326,-68.253203 M -193.95772,60.837688 C -124.025,103.75708 -41.866534,126.48943 40.229157,126.48901 122.12947,126.48736 204.1152,103.84649 273.80782,60.929888 m -458.64718,-14.9546 C -117.7684,87.178747 -38.64941,109.05304 40.229083,109.05243 118.91723,109.04718 197.85619,87.268916 264.66742,46.081119 M -176.16986,31.844511 C -111.81979,71.416509 -35.590654,92.474982 40.229013,92.474197 115.86312,92.465515 191.90528,71.507394 255.97697,31.963303 M -168.06888,18.640383 C -106.26127,56.687904 -32.732481,76.984056 40.228947,76.983106 113.00929,76.971222 186.34462,56.779459 247.85641,18.771285 M -160.76911,6.7421784 C -101.2525,43.415998 -30.156988,63.025224 40.228888,63.024125 110.43771,63.009356 181.33392,43.508157 240.53899,6.8839935"
         inkscape:connector-curvature="0" />
      <path
         transform="matrix(0.26458333,0,0,0.26458333,-244.72541,-4.109172)"
         inkscape:connector-curvature="0"
         id="path886"
         d="m 1164.4108,290.63834 c -1.1596,-4.32678 -2.1298,-14.42463 -2.156,-22.43964 l -0.048,-14.57277 24.0767,-1.161 24.0766,-1.16101 2.1303,20.46403 c 1.1717,11.25522 1.258,21.87551 0.1918,23.60066 -1.0662,1.72514 -11.8891,3.13662 -24.051,3.13662 -19.9758,0 -22.3161,-0.76014 -24.2206,-7.86689 z"
         style="vector-effect:none;fill:#666666;fill-opacity:1;stroke:none;stroke-width:3.77952743;stroke-linejoin:round;stroke-miterlimit:4;stroke-dasharray:none" />
      <path
         transform="matrix(0.26458333,0,0,0.26458333,-244.72541,-4.109172)"
         inkscape:connector-curvature="0"
         id="path888"
         d="M 1109.7611,396.91729 V 368.4331 h 15.2967 c 8.4132,0 19.9968,-0.94001 25.7413,-2.08891 l 10.4446,-2.08892 1.8202,27.43777 c 1.0011,15.09077 1.4824,27.82881 1.0695,28.30676 -0.4129,0.47795 -12.8156,1.88886 -27.5615,3.13535 l -26.8108,2.26634 z"
         style="vector-effect:none;fill:#666666;fill-opacity:1;stroke:none;stroke-width:3.77952743;stroke-linejoin:round;stroke-miterlimit:4;stroke-dasharray:none" />
      <path
         transform="matrix(0.26458333,0,0,0.26458333,-244.72541,-4.109172)"
         inkscape:connector-curvature="0"
         id="path890"
         d="m 1044.5604,612.30654 c 1.2127,-10.09583 2.2185,-25.04291 2.2353,-33.21573 l 0.03,-14.85968 h 29.7194 29.7193 v 33.21574 33.21574 h -31.9545 -31.9546 z"
         style="vector-effect:none;fill:#666666;fill-opacity:1;stroke:none;stroke-width:3.77952743;stroke-linejoin:round;stroke-miterlimit:4;stroke-dasharray:none" />
      <path
         transform="matrix(0.26458333,0,0,0.26458333,-244.72541,-4.109172)"
         inkscape:connector-curvature="0"
         id="path892"
         d="m 980.82395,774.92933 -15.30438,-1.36012 2.19291,-15.999 c 1.2061,-8.79945 2.1929,-23.64629 2.1929,-32.99297 v -16.99397 h 33.21572 33.2158 v 34.96393 34.96394 l -20.1043,-0.61085 c -11.0573,-0.33596 -26.99124,-1.2229 -35.40865,-1.97096 z"
         style="vector-effect:none;fill:#666666;fill-opacity:1;stroke:none;stroke-width:3.77952743;stroke-linejoin:round;stroke-miterlimit:4;stroke-dasharray:none" />
    </g>
    <path
       sodipodi:nodetypes="cccccccccccccccccccccccccccccccccccccccccccccccccccccccccccccccccccccccccccccccccccccccccc"
       id="path901"
       style="vector-effect:none;fill:none;stroke:#ff0000;stroke-width:1;stroke-linejoin:round;stroke-miterlimit:4;stroke-dasharray:none"
       d="m -239.77293,444.45415 h 580 m -580,16.00908 h 580 m -580,17.76619 h 580 m -580,19.01301 h 580 m -580,19.99741 h 580 m -580,20.8186 h 580 m -580,21.52726 h 580 m -580,22.15315 h 580 m -580,22.7153 h 580 m -580,-160 v 160 m 20,-160 v 160 m 20,-160 v 160 m 20,-160 v 160 m 20,-160 v 160 m 100,-160 v 160 m -80,-160 v 160 m 20,-160 v 160 m 20,-160 v 160 m 20,-160 v 160 m 20,-160 v 160 m 0,-160 v 160 m 20,-160 v 160 m 20,-160 v 160 m 20,-160 v 160 m 20,-160 v 160 m 20,-160 v 160 m 20,-160 v 160 m 20,-160 v 160 m 60,-160 v 160 m -40,-160 v 160 m 20,-160 v 160 m 20,-160 v 160 m 0,-160 v 160 m 20,-160 v 160 m 20,-160 v 160 m 20,-160 v 160 m 20,-160 v 160 m 20,-160 v 160 m 100,-160 v 160 m 0,-160 v 160 m -80,-160 v 160 m 20,-160 v 160 m 20,-160 v 160 m 20,-160 v 160 m 20,-160 v 160"
       inkscape:connector-curvature="0" />
  </g>
  <g
     inkscape:groupmode="layer"
     id="layer2"
     inkscape:label="cone"
     transform="translate(244.72541,4.109172)"
     style="display:inline"
     sodipodi:insensitive="true">
    <path
       style="fill:none;stroke:#000000;stroke-width:1"
       inkscape:connector-curvature="0"
       inkscape:transform-center-y="427.625"
       d="m 240.8835,6.6846349 a 386.065,386.065 0 0 1 -401.767,0 l -72.587,119.1280051 a 525.565,525.565 0 0 0 546.941,0 z"
       id="path1116" />
    <path
       style="vector-effect:none;fill:none;fill-opacity:1;stroke:#0000ff;stroke-width:0.5;stroke-linejoin:round;stroke-miterlimit:4;stroke-dasharray:none"
       d="m 277.17858,66.241628 c -143.71681,88.604782 -329.61771,88.748922 -474.35267,0.0027"
       id="path3811"
       inkscape:connector-curvature="0"
       sodipodi:nodetypes="cc" />
    <path
       style="vector-effect:none;fill:none;stroke:#00ff00;stroke-width:1;stroke-linejoin:round;stroke-miterlimit:4;stroke-dasharray:none"
       d="M -52.511407,154.95827 -197.17409,66.244369"
       id="path3895"
       inkscape:connector-curvature="0"
       sodipodi:nodetypes="cc" />
    <path
       style="vector-effect:none;fill:none;stroke:#00ff00;stroke-width:1;stroke-linejoin:round;stroke-miterlimit:4;stroke-dasharray:none"
       d="M 133.12102,154.95827 277.1743,66.24422"
       id="path3897"
       inkscape:connector-curvature="0"
       sodipodi:nodetypes="cc" />
  </g>
</svg>
