<?xml version="1.0" encoding="UTF-8" standalone="no"?>
<!-- Created with Inkscape (http://www.inkscape.org/) -->

<svg
   xmlns:dc="http://purl.org/dc/elements/1.1/"
   xmlns:cc="http://creativecommons.org/ns#"
   xmlns:rdf="http://www.w3.org/1999/02/22-rdf-syntax-ns#"
   xmlns:svg="http://www.w3.org/2000/svg"
   xmlns="http://www.w3.org/2000/svg"
   xmlns:sodipodi="http://sodipodi.sourceforge.net/DTD/sodipodi-0.dtd"
   xmlns:inkscape="http://www.inkscape.org/namespaces/inkscape"
   width="1185.9525mm"
   height="619.56329mm"
   viewBox="0 0 1185.9525 619.56329"
   version="1.1"
   id="svg1687"
   inkscape:version="0.92.4 (unknown)"
   sodipodi:docname="bend-squares.svg">
  <defs
     id="defs1681">
    <inkscape:path-effect
       effect="bend_path"
       id="path-effect2585"
       is_visible="true"
       bendpath="M 47.55132,70.353541 C 192.214,159.06744 377.84643,159.06744 521.89974,70.353422"
       prop_scale="0.87194182"
       scale_y_rel="false"
       vertical="false"
       bendpath-nodetypes="cc" />
    <inkscape:path-effect
       effect="bend_path"
       id="path-effect2510"
       is_visible="true"
       bendpath="m 47.55132,70.3535 c 144.66268,88.71394 330.29511,88.71394 474.34842,-7.8e-5"
       prop_scale="0.87194226"
       scale_y_rel="false"
       vertical="false"
       bendpath-nodetypes="cc" />
    <inkscape:path-effect
       effect="bend_path"
       id="path-effect2502"
       is_visible="true"
       bendpath="M 47.55132,70.353541 C 192.214,159.06744 377.84643,159.06744 521.89974,70.353422"
       prop_scale="0.87194182"
       scale_y_rel="false"
       vertical="false"
       bendpath-nodetypes="cc" />
    <inkscape:path-effect
       effect="bend_path"
       id="path-effect2386"
       is_visible="true"
       bendpath="M 47.55132,70.353541 C 192.214,159.06744 377.84643,159.06744 521.89974,70.353422"
       prop_scale="0.87194182"
       scale_y_rel="false"
       vertical="false"
       bendpath-nodetypes="cc" />
    <inkscape:path-effect
       effect="bend_path"
       id="path-effect2324"
       is_visible="true"
       bendpath="m 47.55132,70.3535 c 144.66268,88.71394 330.29511,88.71394 474.34842,-7.8e-5"
       prop_scale="0.87194226"
       scale_y_rel="false"
       vertical="false"
       bendpath-nodetypes="cc" />
    <inkscape:path-effect
       effect="bend_path"
       id="path-effect2196"
       is_visible="true"
       bendpath="m 47.55132,70.3535 c 144.66268,88.71394 330.29511,88.71394 474.34842,-7.8e-5"
       prop_scale="0.87194226"
       scale_y_rel="false"
       vertical="false"
       bendpath-nodetypes="cc" />
    <inkscape:path-effect
       effect="bend_path"
       id="path-effect861"
       is_visible="true"
       bendpath="m -197.17409,66.244328 c 144.662683,88.713942 330.29511,88.713942 474.34842,-7.8e-5"
       prop_scale="0.87194226"
       scale_y_rel="false"
       vertical="false"
       bendpath-nodetypes="cc" />
    <inkscape:path-effect
       effect="bend_path"
       id="path-effect392"
       is_visible="true"
       bendpath="m -197.17395,66.244459 c 144.662543,88.713811 330.29497,88.713811 474.35253,-0.0028"
       prop_scale="0.83483283"
       scale_y_rel="false"
       vertical="false"
       bendpath-nodetypes="cc" />
    <inkscape:path-effect
       effect="bend_path"
       id="path-effect390"
       is_visible="true"
       bendpath="M -26.885051,524.45415 H 140.22707"
       prop_scale="1"
       scale_y_rel="false"
       vertical="false" />
    <inkscape:path-effect
       effect="bend_path"
       id="path-effect191"
       is_visible="true"
       bendpath="m -39.77293,524.45415 h 160"
       prop_scale="1"
       scale_y_rel="false"
       vertical="false" />
    <inkscape:path-effect
       bendpath-nodetypes="cc"
       vertical="false"
       scale_y_rel="false"
       prop_scale="0.87194164"
       bendpath="m -197.17309,66.244995 c 144.661683,88.713275 330.29411,88.713275 474.35167,-0.0034"
       is_visible="true"
       id="path-effect6164"
       effect="bend_path" />
    <inkscape:path-effect
       effect="bend_path"
       id="path-effect6154"
       is_visible="true"
       bendpath="m -197.17309,66.244995 c 144.661683,88.713275 330.29411,88.713275 474.35167,-0.0034"
       prop_scale="0.87194164"
       scale_y_rel="false"
       vertical="false"
       bendpath-nodetypes="cc" />
    <inkscape:path-effect
       effect="bend_path"
       id="path-effect6151"
       is_visible="true"
       bendpath="m -197.17395,66.244459 c 144.662543,88.713811 330.29497,88.713811 474.34826,-2.37e-4"
       prop_scale="1.1864353"
       scale_y_rel="false"
       vertical="false"
       bendpath-nodetypes="cc" />
    <inkscape:path-effect
       effect="lattice2"
       gridpoint0="-232.02422,7.225695"
       gridpoint1="311.82423,7.225695"
       gridpoint2="-232.02422,124.8138"
       gridpoint3="311.82423,124.8138"
       gridpoint4="-96.062108,7.225695"
       gridpoint5="175.86212,7.225695"
       gridpoint6="-96.062108,124.8138"
       gridpoint7="175.86212,124.8138"
       gridpoint8x9="39.900005,7.225695"
       gridpoint10x11="39.900005,124.8138"
       gridpoint12="-232.02422,36.622721"
       gridpoint13="311.82423,36.622721"
       gridpoint14="-232.02422,95.416774"
       gridpoint15="311.82423,95.416774"
       gridpoint16="-96.062108,36.622721"
       gridpoint17="175.86212,36.622721"
       gridpoint18="-96.062108,95.416774"
       gridpoint19="175.86212,95.416774"
       gridpoint20x21="39.900005,36.622721"
       gridpoint22x23="39.900005,95.416774"
       gridpoint24x26="-232.02422,66.019747"
       gridpoint25x27="311.82423,66.019747"
       gridpoint28x30="-96.062108,66.019747"
       gridpoint29x31="175.86212,66.019747"
       gridpoint32x33x34x35="39.900005,66.019747"
       id="path-effect6149"
       is_visible="true"
       horizontal_mirror="false"
       vertical_mirror="false"
       live_update="true" />
    <inkscape:path-effect
       vertical="false"
       scale_y_rel="false"
       prop_scale="1"
       bendpath="M -231.92422,66.019747 H 311.92423"
       is_visible="true"
       id="path-effect6065"
       effect="bend_path" />
    <inkscape:path-effect
       effect="bend_path"
       id="path-effect5979"
       is_visible="true"
       bendpath="M -231.92422,66.019747 H 311.92423"
       prop_scale="1"
       scale_y_rel="false"
       vertical="false" />
    <inkscape:path-effect
       effect="lattice2"
       gridpoint0="-233.4705,6.6846349"
       gridpoint1="313.4705,6.6846349"
       gridpoint2="-233.4705,202.56537"
       gridpoint3="313.4705,202.56537"
       gridpoint4="-96.73525,6.6846349"
       gridpoint5="176.73525,6.6846349"
       gridpoint6="-96.73525,202.56537"
       gridpoint7="176.73525,202.56537"
       gridpoint8x9="40,6.6846349"
       gridpoint10x11="40,202.56537"
       gridpoint12="-233.4705,55.654818"
       gridpoint13="313.4705,55.654818"
       gridpoint14="-233.4705,153.59519"
       gridpoint15="313.4705,153.59519"
       gridpoint16="-96.73525,55.654818"
       gridpoint17="176.73525,55.654818"
       gridpoint18="-96.73525,153.59519"
       gridpoint19="176.73525,153.59519"
       gridpoint20x21="40,55.654818"
       gridpoint22x23="40,153.59519"
       gridpoint24x26="-233.4705,104.625"
       gridpoint25x27="313.4705,104.625"
       gridpoint28x30="-96.73525,104.625"
       gridpoint29x31="176.73525,104.625"
       gridpoint32x33x34x35="40,104.625"
       id="path-effect3955"
       is_visible="true"
       horizontal_mirror="false"
       vertical_mirror="false"
       live_update="true" />
    <inkscape:path-effect
       effect="construct_grid"
       id="path-effect3953"
       is_visible="true"
       nr_x="5"
       nr_y="5" />
    <inkscape:path-effect
       effect="bspline"
       id="path-effect3948"
       is_visible="true"
       weight="33.333333"
       steps="2"
       helper_size="0"
       apply_no_weight="true"
       apply_with_weight="true"
       only_selected="false" />
    <inkscape:path-effect
       effect="bend_path"
       id="path-effect3946"
       is_visible="true"
       bendpath="M -260,467 H 340"
       prop_scale="0.95204038"
       scale_y_rel="false"
       vertical="false" />
  </defs>
  <sodipodi:namedview
     id="base"
     pagecolor="#ffffff"
     bordercolor="#666666"
     borderopacity="1.0"
     inkscape:pageopacity="0.0"
     inkscape:pageshadow="2"
     inkscape:zoom="0.25"
     inkscape:cx="2167.7051"
     inkscape:cy="1227.1358"
     inkscape:document-units="mm"
     inkscape:current-layer="layer1"
     showgrid="false"
     inkscape:snap-center="true"
     inkscape:snap-nodes="true"
     showguides="true"
     inkscape:guide-bbox="true"
     inkscape:snap-intersection-paths="true"
     inkscape:snap-global="true"
     fit-margin-top="10"
     fit-margin-left="10"
     fit-margin-right="10"
     fit-margin-bottom="10">
    <inkscape:grid
       originy="318.45419"
       originx="244.7254"
       id="grid2241"
       type="xygrid" />
    <sodipodi:guide
       inkscape:locked="false"
       id="guide3789"
       orientation="0,1"
       position="344.7254,938.45419" />
  </sodipodi:namedview>
  <metadata
     id="metadata1684">
    <rdf:RDF>
      <cc:Work
         rdf:about="">
        <dc:format>image/svg+xml</dc:format>
        <dc:type
           rdf:resource="http://purl.org/dc/dcmitype/StillImage" />
        <dc:title />
      </cc:Work>
    </rdf:RDF>
  </metadata>
  <g
     inkscape:label="Ebene 1"
     inkscape:groupmode="layer"
     id="layer1"
     style="display:inline">
    <path
       id="path37"
       style="vector-effect:none;fill:none;stroke:#ff0000;stroke-width:1;stroke-linejoin:round;stroke-miterlimit:4;stroke-dasharray:none"
       d="m 606.25534,443.32767 h 579.99996 m -579.99996,20 h 579.99996 m -579.99996,20 h 579.99996 m -579.99996,20 h 579.99996 m -579.99996,20 h 579.99996 m -579.99996,20 h 579.99996 m -579.99996,20 h 579.99996 m -579.99996,20 h 579.99996 m -579.99996,20 h 579.99996 m -579.99996,-160 v 160 m 20,-160 v 160 m 20,-160 v 160 m 20,-160 v 160 m 20,-160 v 160 m 100,-160 v 160 m -80,-160 v 160 m 20,-160 v 160 m 20,-160 v 160 m 20,-160 v 160 m 20,-160 v 160 m 0,-160 v 160 m 20,-160 v 160 m 20,-160 v 160 m 20,-160 v 160 m 20,-160 v 160 m 20,-160 v 160 m 20,-160 v 160 m 19.99996,-160 v 160 m 60,-160 v 160 m -40,-160 v 160 m 20,-160 v 160 m 20,-160 v 160 m 0,-160 v 160 m 20,-160 v 160 m 20,-160 v 160 m 20,-160 v 160 m 20,-160 v 160 m 20,-160 v 160 m 100,-160 v 160 m 0,-160 v 160 m -80,-160 v 160 m 20,-160 v 160 m 20,-160 v 160 m 20,-160 v 160 m 20,-160 v 160"
       inkscape:connector-curvature="0" />
    <path
       inkscape:connector-curvature="0"
       d="M -160.76922,6.7420229 C -101.25263,43.41584 -30.157231,63.025198 40.228627,63.024394 110.43632,63.009806 181.33132,43.509827 240.53472,6.8865557 M -169.88877,21.606354 C -107.51007,59.996315 -33.374821,80.463845 40.228629,80.463239 113.64884,80.452295 187.59103,60.089601 249.67631,21.737255 M -179.00832,36.470686 C -113.76751,76.576791 -36.59241,97.902491 40.228631,97.902084 116.86135,97.894785 193.85074,76.669376 258.8179,36.587954 M -188.12787,51.335018 C -120.02495,93.157266 -39.81,115.34114 40.228633,115.34093 120.07386,115.33728 200.11045,93.24915 267.95949,51.438653 m -465.20691,14.760696 c 70.96503,43.538391 154.219831,66.580431 237.476055,66.580421 83.057745,-1e-5 166.141525,-22.95085 236.872445,-66.490418 m -483.46805,14.774329 c 73.82714,45.254539 160.121791,69.154749 246.595607,69.154939 86.270253,0.004 172.401233,-23.80992 246.014033,-69.078569 m -501.72919,14.787961 c 76.68925,46.970678 166.023752,71.729068 255.715159,71.729458 89.482771,0.007 178.660941,-24.669 255.155621,-71.66672 m -519.99033,14.80159 c 79.55136,48.68683 171.925712,74.30338 264.834711,74.30397 92.695279,0.0109 184.920649,-25.52806 264.297209,-74.25486 m -538.25147,14.81523 c 82.41347,50.40296 177.827673,76.87769 273.954263,76.87848 95.907787,0.0146 191.180357,-26.38714 273.438797,-76.84301 M -160.76922,6.7420229 -233.72562,125.65668 M -148.30932,14.076925 -216.51384,135.731 m 80.96997,-114.809982 -63.41216,124.198092 m 76.45906,-117.849799 -58.57932,126.546699 m 71.88356,-120.699199 -53.706,128.699899 M -39.654753,54.667687 -68.386906,191.20246 M -95.655241,38.458526 -144.44743,169.11622 M -81.9086,43.289463 -125.7465,175.70954 M -67.976905,47.604631 -106.82004,181.59168 M -53.884257,51.399036 -87.692142,186.75765 M -39.654753,54.667687 -68.386906,191.20246 M -39.654753,54.667687 -68.386906,191.20246 M -25.312491,57.405591 -48.928432,194.92112 M -10.88157,59.607756 -29.340817,197.90862 M 3.6139121,61.26919 -9.6481593,200.15999 M 18.149857,62.3849 10.125442,201.67023 M 32.702165,62.949895 29.95589,202.43434 M 47.250341,62.958088 49.815635,202.44867 M 61.799923,62.409765 69.651654,201.71155 M 105.25132,57.480607 128.73537,195.02644 M 76.332913,61.310968 89.43325,200.2257 M 90.824861,59.66636 109.13597,197.99578 M 105.25132,57.480607 128.73537,195.02644 M 105.25132,57.480607 128.73537,195.02644 M 119.58783,54.758376 148.20699,191.32237 M 133.80995,51.504331 167.52639,186.88822 M 147.89323,47.723139 186.66911,181.72866 M 161.81321,43.419464 205.61071,175.84835 M 175.54545,38.597972 224.32673,169.25197 M 240.53472,6.8865557 313.66744,125.69215 M 240.53472,6.8865557 313.66744,125.69215 M 189.06549,33.263329 242.79273,161.94417 M 202.34889,27.420201 260.98425,153.92962 M 215.37119,21.073252 278.87684,145.21299 M 228.10795,14.227148 296.44605,135.79895 M 240.53472,6.8865557 313.66744,125.69215"
       style="vector-effect:none;fill:none;stroke:#ff0000;stroke-width:1;stroke-linejoin:round;stroke-miterlimit:4;stroke-dasharray:none"
       id="path859"
       inkscape:path-effect="#path-effect861"
       inkscape:original-d="m -239.77293,444.45415 h 580 m -580,20 h 580 m -580,20 h 580 m -580,20 h 580 m -580,20 h 580 m -580,20 h 580 m -580,20 h 580 m -580,20 h 580 m -580,20 h 580 m -580,-160 v 160 m 20,-160 v 160 m 20,-160 v 160 m 20,-160 v 160 m 20,-160 v 160 m 100,-160 v 160 m -80,-160 v 160 m 20,-160 v 160 m 20,-160 v 160 m 20,-160 v 160 m 20,-160 v 160 m 0,-160 v 160 m 20,-160 v 160 m 20,-160 v 160 m 20,-160 v 160 m 20,-160 v 160 m 20,-160 v 160 m 20,-160 v 160 m 20,-160 v 160 m 60,-160 v 160 m -40,-160 v 160 m 20,-160 v 160 m 20,-160 v 160 m 0,-160 v 160 m 20,-160 v 160 m 20,-160 v 160 m 20,-160 v 160 m 20,-160 v 160 m 20,-160 v 160 m 100,-160 v 160 m 0,-160 v 160 m -80,-160 v 160 m 20,-160 v 160 m 20,-160 v 160 m 20,-160 v 160 m 20,-160 v 160"
       transform="translate(855.06992,3.9098134)" />
    <path
       style="vector-effect:none;fill:#666666;fill-opacity:1;stroke:none;stroke-width:0.99999994;stroke-linejoin:round;stroke-miterlimit:4;stroke-dasharray:none"
       d="m 933.16099,74.248318 c -0.36089,-4.137268 -0.4754,-7.703079 -0.25445,-7.924024 0.22095,-0.220946 3.10137,-0.653818 6.40096,-0.961935 l 5.99924,-0.560219 0.87244,7.490902 0.87244,7.490902 -2.34585,0.433009 c -1.29022,0.238157 -4.26794,0.68516 -6.61721,0.993341 l -4.27138,0.560327 z"
       id="path871"
       inkscape:connector-curvature="0" />
    <path
       style="vector-effect:none;fill:#666666;fill-opacity:1;stroke:none;stroke-width:0.99999994;stroke-linejoin:round;stroke-miterlimit:4;stroke-dasharray:none"
       d="m 920.26718,110.34759 c -0.34956,-4.19164 -0.49281,-7.76394 -0.31829,-7.93845 0.17452,-0.17451 3.28859,-0.59345 6.9202,-0.93097 7.55669,-0.70232 7.01905,-1.3401 8.0821,9.58744 l 0.56245,5.7818 -3.97756,0.0102 c -2.18766,0.006 -5.4751,0.2579 -7.30544,0.56067 l -3.32787,0.55049 z"
       id="path873"
       inkscape:connector-curvature="0" />
    <path
       style="vector-effect:none;fill:#666666;fill-opacity:1;stroke:none;stroke-width:0.99999994;stroke-linejoin:round;stroke-miterlimit:4;stroke-dasharray:none"
       d="m 904.89389,162.63924 v -7.86325 h 7.75536 c 8.89955,0 8.86079,-0.041 8.88359,9.38317 0.0151,6.20968 -0.19095,6.34332 -9.77646,6.34332 h -6.86249 z"
       id="path875"
       inkscape:connector-curvature="0" />
    <path
       style="vector-effect:none;fill:#666666;fill-opacity:1;stroke:none;stroke-width:0.99999994;stroke-linejoin:round;stroke-miterlimit:4;stroke-dasharray:none"
       d="m 886.39213,197.79256 v -7.86325 h 8.78835 8.78832 v 7.86325 7.86324 h -8.78832 -8.78835 z"
       id="path877"
       inkscape:connector-curvature="0" />
    <path
       inkscape:connector-curvature="0"
       id="path1457"
       d="MNone 421.10908CNone 341.10908 None 421.10908 None 421.10908"
       style="vector-effect:none;fill:#666666;fill-opacity:1;stroke:#ff00ff;stroke-width:1;stroke-linejoin:round;stroke-miterlimit:4;stroke-dasharray:none;stroke-opacity:1" />
    <path
       style="vector-effect:none;fill:#666666;fill-opacity:1;stroke:#ff00ff;stroke-width:1;stroke-linejoin:round;stroke-miterlimit:4;stroke-dasharray:none;stroke-opacity:1"
       d="m 689.79531,325.01891 -80,-80.00001 -80,80.00001"
       id="path1505"
       inkscape:connector-curvature="0" />
    <path
       style="vector-effect:none;fill:none;fill-opacity:1;stroke:#ff00ff;stroke-width:1;stroke-linejoin:round;stroke-miterlimit:4;stroke-dasharray:none;stroke-opacity:1"
       d="MNone 271.10909CNone 271.10909 None 351.1091 None 351.1091CNone 351.1091 None 271.10909 None 271.10909"
       id="path1507"
       inkscape:connector-curvature="0" />
    <path
       style="vector-effect:none;fill:none;fill-opacity:1;stroke:#ff00ff;stroke-width:1;stroke-linejoin:round;stroke-miterlimit:4;stroke-dasharray:none;stroke-opacity:1"
       d="MNone 261.10909CNone 261.10909 None 341.1091 None 341.1091CNone 341.1091 None 261.10909 None 261.10909"
       id="path1601"
       inkscape:connector-curvature="0" />
    <text
       id="text2212"
       y="438.32764"
       x="76.241638"
       style="font-style:normal;font-variant:normal;font-weight:normal;font-stretch:normal;font-size:16.93333244px;line-height:1.25;font-family:sans-serif;-inkscape-font-specification:sans-serif;vector-effect:none;fill:#000000;fill-opacity:1;stroke:none;stroke-width:1;stroke-linejoin:round;stroke-miterlimit:4;stroke-dasharray:none;stroke-opacity:1"
       xml:space="preserve"><tspan
         style="fill:#000000;stroke:none;stroke-width:1"
         y="438.32764"
         x="76.241638"
         id="tspan2210"
         sodipodi:role="line">Exponent=1.8    Padding=200</tspan></text>
    <text
       id="text2216"
       y="438.32764"
       x="366.26901"
       style="font-style:normal;font-variant:normal;font-weight:normal;font-stretch:normal;font-size:16.93333244px;line-height:1.25;font-family:sans-serif;-inkscape-font-specification:sans-serif;vector-effect:none;fill:#000000;fill-opacity:1;stroke:none;stroke-width:1;stroke-linejoin:round;stroke-miterlimit:4;stroke-dasharray:none;stroke-opacity:1"
       xml:space="preserve"><tspan
         style="stroke-width:1"
         y="438.32764"
         x="366.26901"
         id="tspan2214"
         sodipodi:role="line"> (applied to y-axis)</tspan></text>
    <path
       id="path2516"
       style="vector-effect:none;fill:none;stroke:#ff0000;stroke-width:1;stroke-linejoin:round;stroke-miterlimit:4;stroke-dasharray:none"
       d="m 586.2553,833.32767 c 0,0 -579.99996,0 -579.99996,0 m 579.99996,-23.5 c 0,0 -579.99996,0 -579.99996,0 m 579.99996,-22.5 c 0,0 -579.99996,0 -579.99996,0 m 579.99996,-21.5 c 0,0 -579.99996,0 -579.99996,0 m 579.99996,-20.5 c 0,0 -579.99996,0 -579.99996,0 m 579.99996,-19.5 c 0,0 -579.99996,0 -579.99996,0 m 579.99996,-18.5 c 0,0 -579.99996,0 -579.99996,0 m 579.99996,-17.5 c 0,0 -579.99996,0 -579.99996,0 m 579.99996,-16.5 c 0,0 -579.99996,0 -579.99996,0 m 579.99996,160 c 0,0 0,-160 0,-160 m -20,160 c 0,0 0,-160 0,-160 m -20,160 c 0,0 0,-160 0,-160 m -20,160 c 0,0 0,-160 0,-160 m -20,160 c 0,0 0,-160 0,-160 m -100,160 c 0,0 0,-160 0,-160 m 80,160 c 0,0 0,-160 0,-160 m -20,160 c 0,0 0,-160 0,-160 m -20,160 c 0,0 0,-160 0,-160 m -20,160 c 0,0 0,-160 0,-160 m -20,160 c 0,0 0,-160 0,-160 m 0,160 c 0,0 0,-160 0,-160 m -20,160 c 0,0 0,-160 0,-160 m -20,160 c 0,0 0,-160 0,-160 m -20,160 c 0,0 0,-160 0,-160 m -20,160 c 0,0 0,-160 0,-160 m -20,160 c 0,0 0,-160 0,-160 m -20,160 c 0,0 0,-160 0,-160 m -19.99996,160 c 0,0 0,-160 0,-160 m -60,160 c 0,0 0,-160 0,-160 m 40,160 c 0,0 0,-160 0,-160 m -20,160 c 0,0 0,-160 0,-160 m -20,160 c 0,0 0,-160 0,-160 m 0,160 c 0,0 0,-160 0,-160 m -20,160 c 0,0 0,-160 0,-160 m -20,160 c 0,0 0,-160 0,-160 m -20,160 c 0,0 0,-160 0,-160 m -20,160 c 0,0 0,-160 0,-160 m -20,160 c 0,0 0,-160 0,-160 m -100,160 c 0,0 0,-160 0,-160 m 0,160 c 0,0 0,-160 0,-160 m 80,160 c 0,0 0,-160 0,-160 m -20,160 c 0,0 0,-160 0,-160 m -20,160 c 0,0 0,-160 0,-160 m -20,160 c 0,0 0,-160 0,-160 m -20,160 c 0,0 0,-160 0,-160"
       inkscape:connector-curvature="0" />
    <text
       xml:space="preserve"
       style="font-style:normal;font-variant:normal;font-weight:normal;font-stretch:normal;font-size:16.93333244px;line-height:1.25;font-family:sans-serif;-inkscape-font-specification:sans-serif;vector-effect:none;fill:#000000;fill-opacity:1;stroke:none;stroke-width:1;stroke-linejoin:round;stroke-miterlimit:4;stroke-dasharray:none;stroke-opacity:1"
       x="76.241638"
       y="668.32764"
       id="text2520"><tspan
         sodipodi:role="line"
         id="tspan2518"
         x="76.241638"
         y="668.32764"
         style="fill:#000000;stroke:none;stroke-width:1">Exponent=2.0    Padding=200</tspan></text>
    <text
       xml:space="preserve"
       style="font-style:normal;font-variant:normal;font-weight:normal;font-stretch:normal;font-size:16.93333244px;line-height:1.25;font-family:sans-serif;-inkscape-font-specification:sans-serif;vector-effect:none;fill:#000000;fill-opacity:1;stroke:none;stroke-width:1;stroke-linejoin:round;stroke-miterlimit:4;stroke-dasharray:none;stroke-opacity:1"
       x="366.26901"
       y="668.32764"
       id="text2524"><tspan
         sodipodi:role="line"
         id="tspan2522"
         x="366.26901"
         y="668.32764"
         style="stroke-width:1"> (applied to y-axis)</tspan></text>
    <path
       id="path2526"
       style="vector-effect:none;fill:none;stroke:#ff0000;stroke-width:1;stroke-linejoin:round;stroke-miterlimit:4;stroke-dasharray:none"
       d="m 586.2553,603.32767 c 0,0 -579.99996,0 -579.99996,0 M 586.2553,580.54939 c 0,0 -579.99996,0 -579.99996,0 M 586.2553,558.54991 c 0,0 -579.99996,0 -579.99996,0 m 579.99996,-21.2137 c 0,0 -579.99996,0 -579.99996,0 M 586.2553,516.91563 c 0,0 -579.99996,0 -579.99996,0 M 586.2553,497.29594 c 0,0 -579.99996,0 -579.99996,0 M 586.2553,478.48542 c 0,0 -579.99996,0 -579.99996,0 M 586.2553,460.49286 c 0,0 -579.99996,0 -579.99996,0 M 586.2553,443.32767 c 0,0 -579.99996,0 -579.99996,0 m 579.99996,160 c 0,0 0,-160 0,-160 m -20,160 c 0,0 0,-160 0,-160 m -20,160 c 0,0 0,-160 0,-160 m -20,160 c 0,0 0,-160 0,-160 m -20,160 c 0,0 0,-160 0,-160 m -100,160 c 0,0 0,-160 0,-160 m 80,160 c 0,0 0,-160 0,-160 m -20,160 c 0,0 0,-160 0,-160 m -20,160 c 0,0 0,-160 0,-160 m -20,160 c 0,0 0,-160 0,-160 m -20,160 c 0,0 0,-160 0,-160 m 0,160 c 0,0 0,-160 0,-160 m -20,160 c 0,0 0,-160 0,-160 m -20,160 c 0,0 0,-160 0,-160 m -20,160 c 0,0 0,-160 0,-160 m -20,160 c 0,0 0,-160 0,-160 m -20,160 c 0,0 0,-160 0,-160 m -20,160 c 0,0 0,-160 0,-160 m -19.99996,160 c 0,0 0,-160 0,-160 m -60,160 c 0,0 0,-160 0,-160 m 40,160 c 0,0 0,-160 0,-160 m -20,160 c 0,0 0,-160 0,-160 m -20,160 c 0,0 0,-160 0,-160 m 0,160 c 0,0 0,-160 0,-160 m -20,160 c 0,0 0,-160 0,-160 m -20,160 c 0,0 0,-160 0,-160 m -20,160 c 0,0 0,-160 0,-160 m -20,160 c 0,0 0,-160 0,-160 m -20,160 c 0,0 0,-160 0,-160 m -100,160 c 0,0 0,-160 0,-160 m 0,160 c 0,0 0,-160 0,-160 m 80,160 c 0,0 0,-160 0,-160 m -20,160 c 0,0 0,-160 0,-160 m -20,160 c 0,0 0,-160 0,-160 m -20,160 c 0,0 0,-160 0,-160 m -20,160 c 0,0 0,-160 0,-160"
       inkscape:connector-curvature="0" />
    <path
       inkscape:connector-curvature="0"
       d="m 558.39283,129.80129 c 0,0 -30.25166,20.33241 -80.53229,40.1753 C 425.33757,190.7044 359.74102,206.65565 284.95406,206.6443 210.0577,206.64369 144.34496,190.67162 91.716241,169.93859 41.33417,150.09062 10.999822,129.76587 10.999822,129.76587 M 547.98135,112.88763 c 0,0 -29.03588,19.53782 -77.40082,38.61849 -50.51556,19.92913 -113.68718,35.28496 -185.62648,35.27684 C 212.90805,186.78253 149.61508,171.40235 98.986587,151.463 50.512731,132.37222 21.386197,112.83668 21.386197,112.83668 M 537.92584,96.552255 c 0,0 -27.86167,18.770385 -74.37641,37.114905 -48.57678,19.15776 -109.40638,33.93853 -178.59538,33.93353 -69.2931,-2.6e-4 -130.24904,-14.80878 -178.94569,-33.9816 C 59.377473,115.25962 31.417456,96.486305 31.417456,96.486305 M 528.2295,80.80035 c 0,0 -26.72941,18.030369 -71.46003,35.66503 -46.70726,18.41393 -105.27849,32.64018 -171.81542,32.6382 -66.63853,-9e-5 -125.34091,-14.25739 -172.17473,-32.69104 C 67.925583,98.758242 41.090417,80.719938 41.090417,80.719938 M 518.89568,65.637363 c 0,0 -25.63948,17.318019 -68.65269,34.26936 -44.90762,17.697917 -101.30493,31.390377 -165.28895,31.391297 -64.08319,7e-5 -120.61628,-13.7266 -165.6569,-31.448728 C 76.154103,82.873808 50.401734,65.54303 50.401734,65.54303 M 509.92792,51.069064 c 0,0 -24.59228,16.633608 -65.95544,32.928428 C 400.79391,101.00748 346.48526,114.18708 284.95404,114.1908 223.32596,114.19101 168.87708,100.97415 125.55933,83.935649 84.059902,67.612358 59.347864,50.961356 59.347864,50.961356 M 501.33002,37.101603 c 0,0 -23.58828,15.977423 -63.36944,31.642798 C 396.43976,85.094837 344.13362,97.78273 284.95404,97.789117 225.67983,97.789475 173.22918,85.061407 131.56325,68.678329 91.639644,52.980332 67.925031,36.981071 67.925031,36.981071 M 493.106,23.741505 c 0,0 -22.62795,15.349773 -60.89589,30.413074 C 392.27495,69.874139 341.88424,82.091706 284.95403,82.100652 227.93134,82.101149 177.39203,69.840614 137.3061,54.08446 98.889787,38.984568 76.129226,23.608707 76.129226,23.608707 M 485.26014,10.995757 c 0,0 -21.71176,14.750985 -58.53608,29.239898 C 388.30166,55.35335 339.73829,67.122217 284.95403,67.133605 230.07932,67.134235 181.36345,55.319733 142.78486,40.161677 105.80654,25.632386 83.95616,10.851258 83.95616,10.851258 M 558.39283,129.80129 c 0,0 -73.13269,-118.805533 -73.13269,-118.805533 m 55.9113,128.912333 c 0,0 -68.33806,-121.571739 -68.33806,-121.571739 m 50.76885,130.985789 c 0,0 -63.50561,-124.139685 -63.50561,-124.139685 m 45.61302,132.856305 c 0,0 -58.63533,-126.509355 -58.63533,-126.509355 m 40.44381,134.523905 c 0,0 -53.72721,-128.680776 -53.72721,-128.680776 M 392.93239,195.43151 c 0,0 -28.61915,-136.563926 -28.61915,-136.563926 M 469.05213,173.36111 c 0,0 -48.78126,-130.653932 -48.78126,-130.653932 M 450.3361,179.95749 c 0,0 -43.79747,-132.42882 -43.79747,-132.42882 m 24.85588,138.30913 c 0,0 -38.77587,-134.005455 -38.77587,-134.005455 m 19.63315,139.165015 c 0,0 -33.71643,-135.383821 -33.71643,-135.383821 m 14.39703,139.817971 c 0,0 -28.61915,-136.563926 -28.61915,-136.563926 m 28.61915,136.563926 c 0,0 -28.61915,-136.563926 -28.61915,-136.563926 m 9.14753,140.267996 c 0,0 -23.48405,-137.545764 -23.48405,-137.545764 m 3.88465,140.515094 c 0,0 -18.3111,-138.329342 -18.3111,-138.329342 m -1.39162,140.559272 c 0,0 -13.10033,-138.914663 -13.10033,-138.914663 m -6.68127,140.400513 c 0,0 -7.85173,-139.301715 -7.85173,-139.301715 M 294.54104,206.55781 c 0,0 -2.5653,-139.490512 -2.5653,-139.490512 M 274.68129,206.54348 c 0,0 2.74627,-139.484374 2.74627,-139.484374 M 254.85089,205.77937 c 0,0 8.02439,-139.285256 8.02439,-139.285256 M 195.79701,199.03027 c 0,0 23.61591,-137.51546 23.61591,-137.51546 m 15.66436,142.75433 c 0,0 13.26205,-138.890735 13.26205,-138.890735 m -32.9547,136.639365 c 0,0 18.45922,-138.300797 18.45922,-138.300797 M 195.79701,199.03027 c 0,0 23.61591,-137.51546 23.61591,-137.51546 m -23.61591,137.51546 c 0,0 23.61591,-137.51546 23.61591,-137.51546 m -43.07438,133.79681 c 0,0 28.73212,-136.534713 28.73212,-136.534713 M 157.0333,190.86681 c 0,0 33.80785,-135.358552 33.80785,-135.358552 M 137.90541,185.70084 c 0,0 38.84309,-133.986985 38.84309,-133.986985 M 118.97894,179.8187 c 0,0 43.83786,-132.420011 43.83786,-132.420011 M 100.27802,173.22539 c 0,0 48.79213,-130.657636 48.79213,-130.657636 M 10.999822,129.76587 c 0,0 72.956338,-118.914612 72.956338,-118.914612 M 10.999822,129.76587 c 0,0 72.956338,-118.914612 72.956338,-118.914612 M 81.826719,165.92589 c 0,0 53.705941,-128.69985 53.705941,-128.69985 M 63.649153,157.92519 c 0,0 58.579267,-126.546648 58.579267,-126.546648 M 45.769416,149.22829 c 0,0 63.412104,-124.198039 63.412104,-124.198039 M 28.211607,139.84019 c 0,0 68.20446,-121.654031 68.20446,-121.654031 M 10.999822,129.76587 c 0,0 72.956338,-118.914612 72.956338,-118.914612"
       style="vector-effect:none;fill:none;stroke:#ff0000;stroke-width:1;stroke-linejoin:round;stroke-miterlimit:4;stroke-dasharray:none"
       id="path2583"
       inkscape:path-effect="#path-effect2585"
       inkscape:original-d="m 586.2553,413.32767 c 0,0 -579.99996,0 -579.99996,0 M 586.2553,390.54939 c 0,0 -579.99996,0 -579.99996,0 M 586.2553,368.54991 c 0,0 -579.99996,0 -579.99996,0 m 579.99996,-21.2137 c 0,0 -579.99996,0 -579.99996,0 M 586.2553,326.91563 c 0,0 -579.99996,0 -579.99996,0 M 586.2553,307.29594 c 0,0 -579.99996,0 -579.99996,0 M 586.2553,288.48542 c 0,0 -579.99996,0 -579.99996,0 M 586.2553,270.49286 c 0,0 -579.99996,0 -579.99996,0 M 586.2553,253.32767 c 0,0 -579.99996,0 -579.99996,0 m 579.99996,160 c 0,0 0,-160 0,-160 m -20,160 c 0,0 0,-160 0,-160 m -20,160 c 0,0 0,-160 0,-160 m -20,160 c 0,0 0,-160 0,-160 m -20,160 c 0,0 0,-160 0,-160 m -100,160 c 0,0 0,-160 0,-160 m 80,160 c 0,0 0,-160 0,-160 m -20,160 c 0,0 0,-160 0,-160 m -20,160 c 0,0 0,-160 0,-160 m -20,160 c 0,0 0,-160 0,-160 m -20,160 c 0,0 0,-160 0,-160 m 0,160 c 0,0 0,-160 0,-160 m -20,160 c 0,0 0,-160 0,-160 m -20,160 c 0,0 0,-160 0,-160 m -20,160 c 0,0 0,-160 0,-160 m -20,160 c 0,0 0,-160 0,-160 m -20,160 c 0,0 0,-160 0,-160 m -20,160 c 0,0 0,-160 0,-160 m -19.99996,160 c 0,0 0,-160 0,-160 m -60,160 c 0,0 0,-160 0,-160 m 40,160 c 0,0 0,-160 0,-160 m -20,160 c 0,0 0,-160 0,-160 m -20,160 c 0,0 0,-160 0,-160 m 0,160 c 0,0 0,-160 0,-160 m -20,160 c 0,0 0,-160 0,-160 m -20,160 c 0,0 0,-160 0,-160 m -20,160 c 0,0 0,-160 0,-160 m -20,160 c 0,0 0,-160 0,-160 m -20,160 c 0,0 0,-160 0,-160 m -100,160 c 0,0 0,-160 0,-160 m 0,160 c 0,0 0,-160 0,-160 m 80,160 c 0,0 0,-160 0,-160 m -20,160 c 0,0 0,-160 0,-160 m -20,160 c 0,0 0,-160 0,-160 m -20,160 c 0,0 0,-160 0,-160 m -20,160 c 0,0 0,-160 0,-160" />
    <path
       style="vector-effect:none;fill:#b3b3b3;fill-opacity:1;stroke:none;stroke-width:3.77952766;stroke-linejoin:round;stroke-miterlimit:4;stroke-dasharray:none;stroke-opacity:1"
       d="m 1150.1551,305.28218 c 2.8875,-1.15548 6.3375,-1.01337 7.6667,0.31579 1.3292,1.32917 -1.0333,2.27456 -5.25,2.10088 -4.6598,-0.19194 -5.6076,-1.13976 -2.4167,-2.41667 z"
       id="path2587"
       inkscape:connector-curvature="0"
       transform="scale(0.26458333)" />
    <path
       style="vector-effect:none;fill:#b3b3b3;fill-opacity:1;stroke:none;stroke-width:3.77952766;stroke-linejoin:round;stroke-miterlimit:4;stroke-dasharray:none;stroke-opacity:1"
       d="m 1106.9051,281.26988 v -25.25524 h 23.4404 23.4404 l 2.36,22.86627 c 1.298,12.57645 1.9999,23.16063 1.5596,23.52041 -0.4402,0.35978 -12.0504,1.43482 -25.8004,2.38897 l -25,1.73483 z"
       id="path2589"
       inkscape:connector-curvature="0"
       transform="scale(0.26458333)" />
    <path
       style="vector-effect:none;fill:#b3b3b3;fill-opacity:1;stroke:none;stroke-width:3.77952766;stroke-linejoin:round;stroke-miterlimit:4;stroke-dasharray:none;stroke-opacity:1"
       d="m 902.7032,769.22663 -10.20195,-1.58935 3.4513,-32.72734 c 1.89822,-18.00004 3.7891,-32.79567 4.20195,-32.87918 0.41286,-0.0835 14.70065,0.4709 31.75065,1.23204 l 31,1.38387 v 21.18399 c 0,11.65119 -1.125,26.80898 -2.5,33.68398 -2.46329,12.31643 -2.83043,12.4912 -25,11.90067 -12.375,-0.32964 -27.09088,-1.31454 -32.70195,-2.18868 z"
       id="path2591"
       inkscape:connector-curvature="0"
       transform="scale(0.26458333)" />
  </g>
  <g
     inkscape:groupmode="layer"
     id="layer2"
     inkscape:label="cone"
     transform="translate(244.72541,4.109172)"
     style="display:inline"
     sodipodi:insensitive="true">
    <path
       style="fill:none;stroke:#000000;stroke-width:1"
       inkscape:connector-curvature="0"
       inkscape:transform-center-y="427.625"
       d="m 240.8835,6.6846349 a 386.065,386.065 0 0 1 -401.767,0 l -72.587,119.1280051 a 525.565,525.565 0 0 0 546.941,0 z"
       id="path1116" />
    <path
       style="vector-effect:none;fill:none;fill-opacity:1;stroke:#0000ff;stroke-width:0.5;stroke-linejoin:round;stroke-miterlimit:4;stroke-dasharray:none"
       d="m 277.17858,66.241628 c -143.71681,88.604782 -329.61771,88.748922 -474.35267,0.0027"
       id="path3811"
       inkscape:connector-curvature="0"
       sodipodi:nodetypes="cc" />
    <path
       style="vector-effect:none;fill:none;stroke:#00ff00;stroke-width:1;stroke-linejoin:round;stroke-miterlimit:4;stroke-dasharray:none"
       d="M -52.511407,154.95827 -197.17409,66.244369"
       id="path3895"
       inkscape:connector-curvature="0"
       sodipodi:nodetypes="cc" />
    <path
       style="vector-effect:none;fill:none;stroke:#00ff00;stroke-width:1;stroke-linejoin:round;stroke-miterlimit:4;stroke-dasharray:none"
       d="M 133.12102,154.95827 277.1743,66.24422"
       id="path3897"
       inkscape:connector-curvature="0"
       sodipodi:nodetypes="cc" />
  </g>
</svg>
